<svg xmlns="http://www.w3.org/2000/svg">
    <symbol id="users">
        <g>
            <path d="M18.9061 16.0937H17.0311V14.2187C17.0311 14.1156 16.9467 14.0312 16.8436 14.0312H15.7186C15.6155 14.0312 15.5311 14.1156 15.5311 14.2187V16.0937H13.6561C13.553 16.0937 13.4686 16.1781 13.4686 16.2812V17.4062C13.4686 17.5093 13.553 17.5937 13.6561 17.5937H15.5311V19.4687C15.5311 19.5718 15.6155 19.6562 15.7186 19.6562H16.8436C16.9467 19.6562 17.0311 19.5718 17.0311 19.4687V17.5937H18.9061C19.0092 17.5937 19.0936 17.5093 19.0936 17.4062V16.2812C19.0936 16.1781 19.0092 16.0937 18.9061 16.0937ZM6.75376 9.68122C6.73266 9.47731 6.72094 9.27106 6.72094 9.06247C6.72094 8.68981 6.7561 8.32653 6.82173 7.97263C6.83813 7.88825 6.7936 7.80153 6.71626 7.76638C6.39751 7.62341 6.10454 7.42653 5.85141 7.1781C5.55315 6.88889 5.31844 6.54069 5.16227 6.15571C5.0061 5.77073 4.93189 5.35742 4.94438 4.94216C4.96548 4.18981 5.26782 3.47497 5.79516 2.93591C6.37407 2.34294 7.15219 2.0195 7.97954 2.02888C8.72719 2.03591 9.44907 2.32419 9.99516 2.83513C10.1803 3.00856 10.3397 3.20075 10.4733 3.407C10.5202 3.47966 10.6116 3.51013 10.6913 3.482C11.1038 3.33903 11.5397 3.23825 11.9874 3.19138C12.1186 3.17731 12.1936 3.03669 12.135 2.9195C11.3733 1.41247 9.81704 0.371845 8.01704 0.34372C5.42016 0.303876 3.25454 2.43435 3.25454 5.03122C3.25454 6.5031 3.93188 7.8156 4.9936 8.67575C4.24829 9.02028 3.56157 9.49606 2.96626 10.0914C1.68188 11.3734 0.95532 13.0656 0.908445 14.8726C0.907819 14.8976 0.912207 14.9225 0.921349 14.9458C0.930492 14.9691 0.944204 14.9903 0.961677 15.0082C0.979151 15.0262 1.00003 15.0404 1.02309 15.0501C1.04615 15.0598 1.07092 15.0648 1.09595 15.0648H2.41079C2.51157 15.0648 2.59594 14.9851 2.59829 14.8843C2.64282 13.525 3.1936 12.2523 4.16157 11.2867C4.85063 10.5976 5.69438 10.1195 6.61548 9.88747C6.70454 9.86169 6.76548 9.77497 6.75376 9.68122ZM17.3124 9.06247C17.3124 6.49841 15.2522 4.41481 12.6975 4.37497C10.1006 4.33513 7.93735 6.4656 7.93735 9.06247C7.93735 10.5343 8.61704 11.8468 9.67641 12.707C8.92338 13.0561 8.23787 13.5353 7.65141 14.1226C6.36704 15.4047 5.64048 17.0968 5.5936 18.9015C5.59298 18.9265 5.59736 18.9514 5.60651 18.9747C5.61565 18.998 5.62936 19.0192 5.64683 19.0372C5.66431 19.0551 5.68519 19.0693 5.70825 19.079C5.73131 19.0887 5.75608 19.0937 5.7811 19.0937H7.0936C7.19438 19.0937 7.27876 19.014 7.2811 18.9132C7.32563 17.5539 7.87641 16.2812 8.84438 15.3156C9.85454 14.3054 11.1952 13.75 12.6249 13.75C15.2124 13.75 17.3124 11.6523 17.3124 9.06247ZM14.7459 11.1836C14.1788 11.7508 13.4264 12.0625 12.6249 12.0625C11.8233 12.0625 11.0709 11.7508 10.5038 11.1836C10.2207 10.902 9.99709 10.5665 9.84612 10.1969C9.69514 9.82733 9.6199 9.4312 9.62485 9.032C9.63188 8.26325 9.93891 7.52028 10.4756 6.9695C11.0381 6.39294 11.7905 6.07185 12.5944 6.06247C13.3889 6.05544 14.16 6.36481 14.7272 6.92028C15.3084 7.48981 15.6272 8.25153 15.6272 9.06247C15.6249 9.86403 15.3131 10.6164 14.7459 11.1836Z"/>
        </g>
    </symbol>
    <symbol id="chat">
        <g>
            <path d="M9.87519 11C9.87519 11.2984 9.99372 11.5845 10.2047 11.7955C10.4157 12.0065 10.7018 12.125 11.0002 12.125C11.2986 12.125 11.5847 12.0065 11.7957 11.7955C12.0067 11.5845 12.1252 11.2984 12.1252 11C12.1252 10.7016 12.0067 10.4155 11.7957 10.2045C11.5847 9.99353 11.2986 9.875 11.0002 9.875C10.7018 9.875 10.4157 9.99353 10.2047 10.2045C9.99372 10.4155 9.87519 10.7016 9.87519 11ZM14.5627 11C14.5627 11.2984 14.6812 11.5845 14.8922 11.7955C15.1032 12.0065 15.3893 12.125 15.6877 12.125C15.9861 12.125 16.2722 12.0065 16.4832 11.7955C16.6942 11.5845 16.8127 11.2984 16.8127 11C16.8127 10.7016 16.6942 10.4155 16.4832 10.2045C16.2722 9.99353 15.9861 9.875 15.6877 9.875C15.3893 9.875 15.1032 9.99353 14.8922 10.2045C14.6812 10.4155 14.5627 10.7016 14.5627 11ZM5.18769 11C5.18769 11.2984 5.30622 11.5845 5.5172 11.7955C5.72818 12.0065 6.01433 12.125 6.31269 12.125C6.61106 12.125 6.89721 12.0065 7.10819 11.7955C7.31917 11.5845 7.43769 11.2984 7.43769 11C7.43769 10.7016 7.31917 10.4155 7.10819 10.2045C6.89721 9.99353 6.61106 9.875 6.31269 9.875C6.01433 9.875 5.72818 9.99353 5.5172 10.2045C5.30622 10.4155 5.18769 10.7016 5.18769 11ZM20.6846 6.93125C20.1549 5.67266 19.3955 4.54297 18.4275 3.57266C17.4663 2.60796 16.3253 1.84114 15.0689 1.31563C13.7799 0.774219 12.4111 0.5 11.0002 0.5H10.9533C9.53301 0.507031 8.15723 0.788281 6.86348 1.34141C5.61791 1.87232 4.48753 2.64049 3.53535 3.60312C2.57676 4.57109 1.82441 5.69609 1.3041 6.95C0.765038 8.24844 0.493163 9.62891 0.500194 11.0492C0.508147 12.6769 0.893222 14.2806 1.62519 15.7344V19.2969C1.62519 19.5828 1.73878 19.857 1.94097 20.0592C2.14316 20.2614 2.41738 20.375 2.70332 20.375H6.26816C7.72198 21.107 9.32565 21.492 10.9533 21.5H11.0025C12.4064 21.5 13.7682 21.2281 15.0502 20.6961C16.3002 20.1768 17.437 19.419 18.3971 18.4648C19.365 17.5063 20.1268 16.3859 20.6588 15.1367C21.2119 13.843 21.4932 12.4672 21.5002 11.0469C21.5072 9.61953 21.2307 8.23438 20.6846 6.93125ZM17.1432 17.1969C15.5002 18.8234 13.3205 19.7188 11.0002 19.7188H10.9604C9.54707 19.7117 8.14316 19.3602 6.90332 18.6992L6.70644 18.5938H3.40644V15.2938L3.30098 15.0969C2.64004 13.857 2.28848 12.4531 2.28144 11.0398C2.27207 8.70312 3.16504 6.50937 4.80332 4.85703C6.43926 3.20469 8.62598 2.29062 10.9627 2.28125H11.0025C12.1744 2.28125 13.3111 2.50859 14.3822 2.95859C15.4275 3.39687 16.365 4.02734 17.1713 4.83359C17.9752 5.6375 18.608 6.57734 19.0463 7.62266C19.501 8.70547 19.7283 9.85391 19.7236 11.0398C19.7096 13.3742 18.7932 15.5609 17.1432 17.1969Z"/>
        </g>


    </symbol>
    <symbol id="messages">
        <g>
            <path d="M18.1719 5.83371C17.3735 5.03264 16.426 4.39565 15.3828 3.95871C14.3129 3.50917 13.1637 3.27885 12.0031 3.28136H11.9633C9.62659 3.29074 7.43987 4.2048 5.80393 5.85714C4.16565 7.50949 3.27268 9.70324 3.28206 12.04C3.28909 13.4532 3.64065 14.8571 4.30159 16.097L4.40706 16.2939V19.5939H7.70706L7.90393 19.6993C9.14377 20.3603 10.5477 20.7118 11.961 20.7189H12.0008C14.3211 20.7189 16.5008 19.8235 18.1438 18.197C19.7938 16.561 20.7102 14.3743 20.7242 12.04C20.7289 10.854 20.5016 9.70558 20.0469 8.62277C19.6097 7.57975 18.9727 6.63229 18.1719 5.83371ZM7.31331 13.1251C7.01891 13.1191 6.73861 12.9979 6.53253 12.7876C6.32646 12.5773 6.21104 12.2946 6.21104 12.0001C6.21104 11.7057 6.32646 11.4229 6.53253 11.2126C6.73861 11.0023 7.01891 10.8811 7.31331 10.8751C7.6077 10.8811 7.88801 11.0023 8.09408 11.2126C8.30015 11.4229 8.41558 11.7057 8.41558 12.0001C8.41558 12.2946 8.30015 12.5773 8.09408 12.7876C7.88801 12.9979 7.6077 13.1191 7.31331 13.1251ZM12.0008 13.1251C11.7064 13.1191 11.4261 12.9979 11.22 12.7876C11.014 12.5773 10.8985 12.2946 10.8985 12.0001C10.8985 11.7057 11.014 11.4229 11.22 11.2126C11.4261 11.0023 11.7064 10.8811 12.0008 10.8751C12.2952 10.8811 12.5755 11.0023 12.7816 11.2126C12.9877 11.4229 13.1031 11.7057 13.1031 12.0001C13.1031 12.2946 12.9877 12.5773 12.7816 12.7876C12.5755 12.9979 12.2952 13.1191 12.0008 13.1251ZM16.6883 13.1251C16.3939 13.1191 16.1136 12.9979 15.9075 12.7876C15.7015 12.5773 15.586 12.2946 15.586 12.0001C15.586 11.7057 15.7015 11.4229 15.9075 11.2126C16.1136 11.0023 16.3939 10.8811 16.6883 10.8751C16.9827 10.8811 17.263 11.0023 17.4691 11.2126C17.6752 11.4229 17.7906 11.7057 17.7906 12.0001C17.7906 12.2946 17.6752 12.5773 17.4691 12.7876C17.263 12.9979 16.9827 13.1191 16.6883 13.1251Z"
                  fill="#E6F7FF"/>
            <path d="M15.5625 12C15.5625 12.2984 15.681 12.5845 15.892 12.7955C16.103 13.0065 16.3891 13.125 16.6875 13.125C16.9859 13.125 17.272 13.0065 17.483 12.7955C17.694 12.5845 17.8125 12.2984 17.8125 12C17.8125 11.7016 17.694 11.4155 17.483 11.2045C17.272 10.9935 16.9859 10.875 16.6875 10.875C16.3891 10.875 16.103 10.9935 15.892 11.2045C15.681 11.4155 15.5625 11.7016 15.5625 12ZM6.1875 12C6.1875 12.2984 6.30603 12.5845 6.517 12.7955C6.72798 13.0065 7.01413 13.125 7.3125 13.125C7.61087 13.125 7.89702 13.0065 8.108 12.7955C8.31897 12.5845 8.4375 12.2984 8.4375 12C8.4375 11.7016 8.31897 11.4155 8.108 11.2045C7.89702 10.9935 7.61087 10.875 7.3125 10.875C7.01413 10.875 6.72798 10.9935 6.517 11.2045C6.30603 11.4155 6.1875 11.7016 6.1875 12Z"
                  fill="#1890FF"/>
            <path d="M21.6846 7.93125C21.1549 6.67266 20.3955 5.54297 19.4275 4.57266C18.4663 3.60796 17.3253 2.84114 16.0689 2.31563C14.7799 1.77422 13.4111 1.5 12.0002 1.5H11.9533C10.533 1.50703 9.15723 1.78828 7.86348 2.34141C6.61791 2.87232 5.48753 3.64049 4.53535 4.60312C3.57676 5.57109 2.82441 6.69609 2.3041 7.95C1.76504 9.24844 1.49316 10.6289 1.50019 12.0492C1.50815 13.6769 1.89322 15.2806 2.62519 16.7344V20.2969C2.62519 20.5828 2.73878 20.857 2.94097 21.0592C3.14316 21.2614 3.41738 21.375 3.70332 21.375H7.26816C8.72198 22.107 10.3257 22.492 11.9533 22.5H12.0025C13.4064 22.5 14.7682 22.2281 16.0502 21.6961C17.3002 21.1768 18.437 20.419 19.3971 19.4648C20.365 18.5063 21.1268 17.3859 21.6588 16.1367C22.2119 14.843 22.4932 13.4672 22.5002 12.0469C22.5072 10.6195 22.2307 9.23438 21.6846 7.93125ZM18.1432 18.1969C16.5002 19.8234 14.3205 20.7188 12.0002 20.7188H11.9604C10.5471 20.7117 9.14316 20.3602 7.90332 19.6992L7.70644 19.5938H4.40644V16.2938L4.30098 16.0969C3.64004 14.857 3.28848 13.4531 3.28144 12.0398C3.27207 9.70312 4.16504 7.50937 5.80332 5.85703C7.43926 4.20469 9.62598 3.29062 11.9627 3.28125H12.0025C13.1744 3.28125 14.3111 3.50859 15.3822 3.95859C16.4275 4.39687 17.365 5.02734 18.1713 5.83359C18.9752 6.6375 19.608 7.57734 20.0463 8.62266C20.501 9.70547 20.7283 10.8539 20.7236 12.0398C20.7096 14.3742 19.7932 16.5609 18.1432 18.1969Z"
                  fill="#1890FF"/>
            <path d="M10.875 12C10.875 12.2984 10.9935 12.5845 11.2045 12.7955C11.4155 13.0065 11.7016 13.125 12 13.125C12.2984 13.125 12.5845 13.0065 12.7955 12.7955C13.0065 12.5845 13.125 12.2984 13.125 12C13.125 11.7016 13.0065 11.4155 12.7955 11.2045C12.5845 10.9935 12.2984 10.875 12 10.875C11.7016 10.875 11.4155 10.9935 11.2045 11.2045C10.9935 11.4155 10.875 11.7016 10.875 12Z"
                  fill="#1890FF"/>
        </g>
    </symbol>
    <symbol id="bell" viewBox="0 0 20 20">
        <g>
            <path d="m8 18c-1.35416667 0-2.5-.7-2.5-2h5c0 1.3-1.14583333 2-2.5 2zm5.9956933-7c0 1.5 2.0043067 1.5 2.0043067 2.5 0 .5 0 1.5-2.1044016 1.5h-11.91128855c-1.98430985 0-1.98430985-1-1.98430985-1.5 0-1 1.98430985-1 2-2.5v-3c0-4 2.09724901-6.5 5-6.9v-.1c0-.6.5-1 1-1s1 .4 1 1v.1c2.902751.4 4.9956933 2.9 4.9956933 6.9z"
                  fill-rule="evenodd" transform="translate(2 1)"/>
        </g>
    </symbol>
    <symbol id="info">
        <g>
            <path d="M12 1.5C6.20156 1.5 1.5 6.20156 1.5 12C1.5 17.7984 6.20156 22.5 12 22.5C17.7984 22.5 22.5 17.7984 22.5 12C22.5 6.20156 17.7984 1.5 12 1.5ZM12 20.7188C7.18594 20.7188 3.28125 16.8141 3.28125 12C3.28125 7.18594 7.18594 3.28125 12 3.28125C16.8141 3.28125 20.7188 7.18594 20.7188 12C20.7188 16.8141 16.8141 20.7188 12 20.7188Z"
            />
            <path d="M10.875 7.875C10.875 8.17337 10.9935 8.45952 11.2045 8.6705C11.4155 8.88147 11.7016 9 12 9C12.2984 9 12.5845 8.88147 12.7955 8.6705C13.0065 8.45952 13.125 8.17337 13.125 7.875C13.125 7.57663 13.0065 7.29048 12.7955 7.0795C12.5845 6.86853 12.2984 6.75 12 6.75C11.7016 6.75 11.4155 6.86853 11.2045 7.0795C10.9935 7.29048 10.875 7.57663 10.875 7.875ZM12.5625 10.5H11.4375C11.3344 10.5 11.25 10.5844 11.25 10.6875V17.0625C11.25 17.1656 11.3344 17.25 11.4375 17.25H12.5625C12.6656 17.25 12.75 17.1656 12.75 17.0625V10.6875C12.75 10.5844 12.6656 10.5 12.5625 10.5Z"
            />
        </g>
    </symbol>
    <symbol id="dropdown">
        <g>
            <path d="M11.1308 0.6875H0.868303C0.56049 0.6875 0.388615 1.0125 0.57924 1.23437L5.71049 7.18437C5.85736 7.35469 6.14018 7.35469 6.28861 7.18437L11.4199 1.23437C11.6105 1.0125 11.4386 0.6875 11.1308 0.6875Z"/>
        </g>
    </symbol>
    <symbol id="feed">
        <g>
            <path d="M20.625 2.625H3.375C2.96016 2.625 2.625 2.96016 2.625 3.375V20.625C2.625 21.0398 2.96016 21.375 3.375 21.375H20.625C21.0398 21.375 21.375 21.0398 21.375 20.625V3.375C21.375 2.96016 21.0398 2.625 20.625 2.625ZM19.6875 19.6875H4.3125V4.3125H19.6875V19.6875Z"
                  fill="#1890FF"/>
            <path d="M4.3125 19.6875H19.6875V4.3125H4.3125V19.6875ZM11.3438 8.0625C11.3438 7.95937 11.4281 7.875 11.5312 7.875H15.8438C15.9469 7.875 16.0312 7.95937 16.0312 8.0625V9.1875C16.0312 9.29063 15.9469 9.375 15.8438 9.375H11.5312C11.4281 9.375 11.3438 9.29063 11.3438 9.1875V8.0625ZM11.3438 11.4375C11.3438 11.3344 11.4281 11.25 11.5312 11.25H15.8438C15.9469 11.25 16.0312 11.3344 16.0312 11.4375V12.5625C16.0312 12.6656 15.9469 12.75 15.8438 12.75H11.5312C11.4281 12.75 11.3438 12.6656 11.3438 12.5625V11.4375ZM11.3438 14.8125C11.3438 14.7094 11.4281 14.625 11.5312 14.625H15.8438C15.9469 14.625 16.0312 14.7094 16.0312 14.8125V15.9375C16.0312 16.0406 15.9469 16.125 15.8438 16.125H11.5312C11.4281 16.125 11.3438 16.0406 11.3438 15.9375V14.8125ZM8.90625 7.6875C9.42422 7.6875 9.84375 8.10703 9.84375 8.625C9.84375 9.14297 9.42422 9.5625 8.90625 9.5625C8.38828 9.5625 7.96875 9.14297 7.96875 8.625C7.96875 8.10703 8.38828 7.6875 8.90625 7.6875ZM8.90625 11.0625C9.42422 11.0625 9.84375 11.482 9.84375 12C9.84375 12.518 9.42422 12.9375 8.90625 12.9375C8.38828 12.9375 7.96875 12.518 7.96875 12C7.96875 11.482 8.38828 11.0625 8.90625 11.0625ZM8.90625 14.4375C9.42422 14.4375 9.84375 14.857 9.84375 15.375C9.84375 15.893 9.42422 16.3125 8.90625 16.3125C8.38828 16.3125 7.96875 15.893 7.96875 15.375C7.96875 14.857 8.38828 14.4375 8.90625 14.4375Z"
                  fill="#E6F7FF"/>
            <path d="M7.96875 15.375C7.96875 15.6236 8.06752 15.8621 8.24334 16.0379C8.41915 16.2137 8.65761 16.3125 8.90625 16.3125C9.15489 16.3125 9.39335 16.2137 9.56916 16.0379C9.74498 15.8621 9.84375 15.6236 9.84375 15.375C9.84375 15.1264 9.74498 14.8879 9.56916 14.7121C9.39335 14.5363 9.15489 14.4375 8.90625 14.4375C8.65761 14.4375 8.41915 14.5363 8.24334 14.7121C8.06752 14.8879 7.96875 15.1264 7.96875 15.375ZM7.96875 12C7.96875 12.2486 8.06752 12.4871 8.24334 12.6629C8.41915 12.8387 8.65761 12.9375 8.90625 12.9375C9.15489 12.9375 9.39335 12.8387 9.56916 12.6629C9.74498 12.4871 9.84375 12.2486 9.84375 12C9.84375 11.7514 9.74498 11.5129 9.56916 11.3371C9.39335 11.1613 9.15489 11.0625 8.90625 11.0625C8.65761 11.0625 8.41915 11.1613 8.24334 11.3371C8.06752 11.5129 7.96875 11.7514 7.96875 12ZM7.96875 8.625C7.96875 8.87364 8.06752 9.1121 8.24334 9.28791C8.41915 9.46373 8.65761 9.5625 8.90625 9.5625C9.15489 9.5625 9.39335 9.46373 9.56916 9.28791C9.74498 9.1121 9.84375 8.87364 9.84375 8.625C9.84375 8.37636 9.74498 8.1379 9.56916 7.96209C9.39335 7.78627 9.15489 7.6875 8.90625 7.6875C8.65761 7.6875 8.41915 7.78627 8.24334 7.96209C8.06752 8.1379 7.96875 8.37636 7.96875 8.625ZM11.5312 16.125H15.8438C15.9469 16.125 16.0312 16.0406 16.0312 15.9375V14.8125C16.0312 14.7094 15.9469 14.625 15.8438 14.625H11.5312C11.4281 14.625 11.3438 14.7094 11.3438 14.8125V15.9375C11.3438 16.0406 11.4281 16.125 11.5312 16.125ZM11.5312 12.75H15.8438C15.9469 12.75 16.0312 12.6656 16.0312 12.5625V11.4375C16.0312 11.3344 15.9469 11.25 15.8438 11.25H11.5312C11.4281 11.25 11.3438 11.3344 11.3438 11.4375V12.5625C11.3438 12.6656 11.4281 12.75 11.5312 12.75ZM11.5312 9.375H15.8438C15.9469 9.375 16.0312 9.29062 16.0312 9.1875V8.0625C16.0312 7.95937 15.9469 7.875 15.8438 7.875H11.5312C11.4281 7.875 11.3438 7.95937 11.3438 8.0625V9.1875C11.3438 9.29062 11.4281 9.375 11.5312 9.375Z"
                  fill="#1890FF"/>
        </g>
    </symbol>
    <symbol id="market">
        <g>
            <path d="M18.6723 4.37734V1.375C18.6723 0.960156 18.3371 0.625 17.9223 0.625H2.07851C1.66366 0.625 1.32851 0.960156 1.32851 1.375V4.37734C0.937099 4.40078 0.625381 4.72656 0.625381 5.125V8.21172C0.62388 8.77901 0.738747 9.34058 0.962881 9.86172C1.06366 10.1008 1.18788 10.3258 1.32851 10.5391V18.625C1.32851 19.0375 1.66366 19.375 2.07851 19.375H17.9223C18.3371 19.375 18.6723 19.0398 18.6723 18.625V10.5391C18.8151 10.3252 18.9375 10.0985 19.0379 9.86172C19.2605 9.33906 19.3754 8.78359 19.3754 8.21172V5.125C19.3754 4.72656 19.0637 4.40078 18.6723 4.37734ZM3.01601 2.3125H16.9848V4.375H3.01601V2.3125ZM11.5004 17.6898H8.50038V15.25H11.5004V17.6898ZM16.9941 17.6898H13.0004V14.5C13.0004 14.0852 12.6652 13.75 12.2504 13.75H7.75038C7.33554 13.75 7.00038 14.0852 7.00038 14.5V17.6898H3.01601V12.0133C3.08397 12.0461 3.15429 12.0789 3.22694 12.107C3.7496 12.3273 4.30507 12.4375 4.87694 12.4375C5.44882 12.4375 6.00194 12.3273 6.52694 12.107C6.85038 11.9711 7.15507 11.7977 7.43397 11.5891C7.43866 11.5867 7.44335 11.5867 7.44804 11.5891C7.72781 11.7985 8.03248 11.9725 8.35507 12.107C8.87772 12.3273 9.43319 12.4375 10.0051 12.4375C10.5769 12.4375 11.1301 12.3273 11.6551 12.107C11.9785 11.9711 12.2832 11.7977 12.5621 11.5891C12.5668 11.5867 12.5715 11.5867 12.5762 11.5891C12.8559 11.7985 13.1606 11.9725 13.4832 12.107C14.0058 12.3273 14.5613 12.4375 15.1332 12.4375C15.7051 12.4375 16.2582 12.3273 16.7832 12.107C16.8535 12.0766 16.9238 12.0461 16.9941 12.0133V17.6898ZM17.6879 8.21172C17.6879 9.61328 16.5394 10.75 15.1262 10.75C14.1699 10.75 13.3355 10.232 12.8949 9.46328C12.8269 9.34609 12.7051 9.27344 12.5691 9.27344H12.5551C12.4215 9.27344 12.2973 9.34609 12.2293 9.46328C12.0044 9.85543 11.6798 10.1811 11.2883 10.4071C10.8968 10.6331 10.4524 10.7514 10.0004 10.75C9.04647 10.75 8.21444 10.2344 7.77382 9.46797C7.70351 9.34844 7.57694 9.27344 7.43866 9.27344C7.30038 9.27344 7.17147 9.34844 7.10351 9.46797C6.87734 9.85862 6.55224 10.1828 6.16096 10.4079C5.76967 10.6329 5.326 10.7509 4.8746 10.75C3.46132 10.75 2.31288 9.61328 2.31288 8.21172V6.07422C2.31288 6.06719 2.31757 6.0625 2.3246 6.0625H17.6762C17.6832 6.0625 17.6879 6.06719 17.6879 6.07422V8.21172Z"
                  fill="#1890FF"/>
        </g>
    </symbol>
    <symbol id="brain">
        <g>
            <path d="M93.998,45.312c0-3.676-1.659-7.121-4.486-9.414c0.123-0.587,0.184-1.151,0.184-1.706c0-4.579-3.386-8.382-7.785-9.037 c0.101-0.526,0.149-1.042,0.149-1.556c0-4.875-3.842-8.858-8.655-9.111c-0.079-0.013-0.159-0.024-0.242-0.024 c-0.04,0-0.079,0.005-0.12,0.006c-0.04-0.001-0.079-0.006-0.12-0.006c-0.458,0-0.919,0.041-1.406,0.126 c-0.846-4.485-4.753-7.825-9.437-7.825c-5.311,0-9.632,4.321-9.632,9.633v65.918c0,6.723,5.469,12.191,12.191,12.191 c4.46,0,8.508-2.413,10.646-6.246c0.479,0.104,0.939,0.168,1.401,0.198c2.903,0.185,5.73-0.766,7.926-2.693 c2.196-1.927,3.51-4.594,3.7-7.51c0.079-1.215-0.057-2.434-0.403-3.638c3.796-2.691,6.027-6.952,6.027-11.621 c0-3.385-1.219-6.635-3.445-9.224C92.731,51.505,93.998,48.471,93.998,45.312z M90.938,62.999c0,3.484-1.582,6.68-4.295,8.819 c-2.008-3.196-5.57-5.237-9.427-5.237c-0.828,0-1.5,0.672-1.5,1.5s0.672,1.5,1.5,1.5c3.341,0,6.384,2.093,7.582,5.208 c0.41,1.088,0.592,2.189,0.521,3.274c-0.138,2.116-1.091,4.051-2.685,5.449c-1.594,1.399-3.641,2.094-5.752,1.954 c-0.594-0.039-1.208-0.167-1.933-0.402c-0.74-0.242-1.541,0.124-1.846,0.84c-1.445,3.404-4.768,5.604-8.465,5.604 c-5.068,0-9.191-4.123-9.191-9.191V16.399c0-3.657,2.975-6.633,6.632-6.633c3.398,0,6.194,2.562,6.558,5.908 c-2.751,1.576-4.612,4.535-4.612,7.926c0,0.829,0.672,1.5,1.5,1.5s1.5-0.671,1.5-1.5c0-3.343,2.689-6.065,6.016-6.13 c3.327,0.065,6.016,2.787,6.016,6.129c0,0.622-0.117,1.266-0.359,1.971c-0.057,0.166-0.084,0.34-0.081,0.515 c0.001,0.041,0.003,0.079,0.007,0.115c-0.006,0.021-0.01,0.035-0.01,0.035c-0.118,0.465-0.006,0.959,0.301,1.328 c0.307,0.369,0.765,0.569,1.251,0.538c0.104-0.007,0.208-0.02,0.392-0.046c3.383,0,6.136,2.753,6.136,6.136 c0,0.572-0.103,1.159-0.322,1.849c-0.203,0.635,0.038,1.328,0.591,1.7c2.434,1.639,3.909,4.329,4.014,7.242 c0,0.004-0.001,0.008-0.001,0.012c0,5.03-4.092,9.123-9.122,9.123s-9.123-4.093-9.123-9.123c0-0.829-0.672-1.5-1.5-1.5 s-1.5,0.671-1.5,1.5c0,6.685,5.438,12.123,12.123,12.123c2.228,0,4.31-0.615,6.106-1.668C89.88,57.539,90.938,60.212,90.938,62.999 z"/>
            <path d="M38.179,6.766c-4.684,0-8.59,3.34-9.435,7.825c-0.488-0.085-0.949-0.126-1.407-0.126c-0.04,0-0.079,0.005-0.12,0.006 c-0.04-0.001-0.079-0.006-0.12-0.006c-0.083,0-0.163,0.011-0.242,0.024c-4.813,0.253-8.654,4.236-8.654,9.111 c0,0.514,0.049,1.03,0.149,1.556c-4.399,0.655-7.785,4.458-7.785,9.037c0,0.554,0.061,1.118,0.184,1.706 c-2.827,2.293-4.486,5.738-4.486,9.414c0,3.159,1.266,6.193,3.505,8.463c-2.227,2.589-3.446,5.839-3.446,9.224 c0,4.669,2.231,8.929,6.027,11.621c-0.347,1.204-0.482,2.423-0.402,3.639c0.19,2.915,1.503,5.582,3.699,7.509 c2.196,1.928,5.015,2.879,7.926,2.693c0.455-0.03,0.919-0.096,1.4-0.199c2.138,3.834,6.186,6.247,10.646,6.247 c6.722,0,12.191-5.469,12.191-12.191V16.399C47.811,11.087,43.49,6.766,38.179,6.766z M44.811,82.317 c0,5.068-4.123,9.191-9.191,9.191c-3.697,0-7.02-2.2-8.464-5.604c-0.241-0.567-0.793-0.914-1.381-0.914 c-0.154,0-0.311,0.023-0.465,0.074c-0.724,0.235-1.338,0.363-1.933,0.402c-2.119,0.139-4.158-0.556-5.751-1.954 c-1.594-1.398-2.547-3.333-2.685-5.449c-0.076-1.16,0.125-2.336,0.598-3.495c0.007-0.017,0.005-0.036,0.011-0.053 c1.342-3.056,4.225-4.953,7.597-4.953c0.829,0,1.5-0.672,1.5-1.5s-0.671-1.5-1.5-1.5c-3.938,0-7.501,2.007-9.548,5.239 c-2.701-2.139-4.277-5.327-4.277-8.802c0-2.787,1.06-5.46,2.978-7.549c1.796,1.053,3.879,1.668,6.107,1.668 c6.685,0,12.123-5.438,12.123-12.123c0-0.829-0.671-1.5-1.5-1.5s-1.5,0.671-1.5,1.5c0,5.03-4.092,9.123-9.123,9.123 s-9.123-4.093-9.123-9.123c0-0.002-0.001-0.004-0.001-0.006c0.103-2.915,1.578-5.607,4.013-7.248 c0.553-0.372,0.793-1.064,0.591-1.699c-0.22-0.691-0.322-1.278-0.322-1.85c0-3.376,2.741-6.125,6.195-6.125 c0.007,0,0.015,0,0.022,0c0.103,0.014,0.206,0.027,0.311,0.034c0.485,0.03,0.948-0.171,1.254-0.542 c0.307-0.372,0.417-0.868,0.294-1.334c0-0.001-0.003-0.014-0.008-0.031c0.003-0.035,0.006-0.067,0.007-0.095 c0.005-0.18-0.022-0.359-0.081-0.529c-0.242-0.707-0.359-1.352-0.359-1.972c0-3.342,2.688-6.065,6.016-6.129 c3.328,0.065,6.016,2.787,6.016,6.13c0,0.829,0.671,1.5,1.5,1.5s1.5-0.671,1.5-1.5c0-3.391-1.861-6.35-4.612-7.926 c0.364-3.346,3.16-5.908,6.558-5.908c3.657,0,6.632,2.976,6.632,6.633V82.317z"/>

        </g>

    </symbol>
    <symbol id="cactus">
        <g>
            <path d="M58.23,69.992l14.993-24.108c0.049-0.078,0.09-0.16,0.122-0.245c2.589-4.222,3.956-9.045,3.956-13.969
		c0-14.772-12.018-26.79-26.79-26.79S23.72,16.898,23.72,31.67c0,4.925,1.369,9.75,3.96,13.975c0.03,0.074,0.065,0.146,0.107,0.216
		l14.455,24.191c-11.221,1.586-18.6,6.2-18.6,11.797c0,6.935,11.785,12.366,26.829,12.366S77.3,88.783,77.3,81.849
		C77.301,76.226,69.578,71.509,58.23,69.992z M30.373,44.294c-2.39-3.804-3.653-8.169-3.653-12.624
		c0-13.118,10.672-23.79,23.791-23.79c13.118,0,23.79,10.672,23.79,23.79c0,4.457-1.263,8.822-3.652,12.624
		c-0.05,0.08-0.091,0.163-0.124,0.249L54.685,70.01c-0.238,0.365-0.285,0.448-0.576,0.926l-4,6.432L30.507,44.564
		C30.472,44.471,30.427,44.38,30.373,44.294z M50.472,91.215c-14.043,0-23.829-4.937-23.829-9.366c0-4.02,7.37-7.808,17.283-8.981
		l4.87,8.151c0.269,0.449,0.751,0.726,1.274,0.73c0.004,0,0.009,0,0.013,0c0.518,0,1-0.268,1.274-0.708l5.12-8.232
		C66.548,73.9,74.3,77.784,74.3,81.849C74.301,86.279,64.515,91.215,50.472,91.215z"/>
            <path d="M60.213,31.67c0-5.371-4.37-9.741-9.741-9.741s-9.741,4.37-9.741,9.741s4.37,9.741,9.741,9.741
		C55.843,41.411,60.213,37.041,60.213,31.67z M43.731,31.67c0-3.717,3.024-6.741,6.741-6.741s6.741,3.024,6.741,6.741
		s-3.023,6.741-6.741,6.741S43.731,35.387,43.731,31.67z"/>
        </g>
    </symbol>
    <symbol id="groups">
        <g>
            <path d="M76.9,34v-2.7c3.4-2,5.6-5.7,5.6-9.7v-4.8c0-6.2-5-11.2-11.2-11.2S60,10.6,60,16.8v4.8c0,3.9,2,7.5,5.4,9.5v2.9
	c-1.5,0.4-2.9,1-4.3,1.8c-2.2-5.1-7.3-8.7-13.2-8.7c-5.8,0-10.7,3.4-13,8.4c-1.3-0.6-2.6-1.2-3.9-1.5v-2.7c3.4-2,5.6-5.7,5.6-9.7
	v-4.8c0-6.2-5-11.2-11.2-11.2s-11.2,5-11.2,11.2v4.8c0,3.9,2,7.5,5.4,9.5v2.9c-9,2.6-15.1,10.7-15.1,20.1c0,0.8,0.7,1.5,1.5,1.5
	h29.6c0.1,0,0.2,0,0.3,0c1.2,1.9,2.9,3.5,4.9,4.7v4.5c-11.9,3.2-20,13.9-20,26.3c0,0.8,0.7,1.5,1.5,1.5h51.5c0.8,0,1.5-0.7,1.5-1.5
	c0-12.3-8.5-23.2-20.3-26.3v-4.3c2.1-1.2,3.8-2.8,5.1-4.8h30.7c0.8,0,1.5-0.7,1.5-1.5C92.2,44.8,85.8,36.5,76.9,34z M7.5,52.7
	c0.6-7.8,6.2-14.2,13.9-16c0.7-0.2,1.2-0.8,1.2-1.5v-5c0-0.6-0.3-1.1-0.8-1.3c-2.8-1.4-4.6-4.2-4.6-7.3v-4.8c0-4.5,3.7-8.2,8.2-8.2
	s8.2,3.7,8.2,8.2v4.8c0,3.1-1.9,6-4.7,7.4c-0.5,0.2-0.9,0.8-0.9,1.4v4.8c0,0.7,0.5,1.3,1.2,1.5c1.7,0.4,3.3,1,4.8,1.8
	c-0.2,1-0.3,2-0.3,3.1V48c0,1.6,0.3,3.2,0.8,4.7L7.5,52.7L7.5,52.7z M52.8,58.2c-0.5,0.2-0.9,0.8-0.9,1.4v6.4c0,0.7,0.5,1.3,1.2,1.5
	c10.6,2.3,18.4,11.5,19.1,22.2H23.8c0.6-10.7,8.2-19.7,18.8-22.1c0.7-0.2,1.2-0.8,1.2-1.5v-6.6c0-0.6-0.3-1.1-0.8-1.3
	c-3.9-1.9-6.3-5.8-6.3-10.1v-6.4c0-6.3,5.1-11.3,11.3-11.3s11.3,5.1,11.3,11.3V48C59.3,52.3,56.8,56.3,52.8,58.2z M61.5,52.7
	c0.5-1.5,0.8-3.1,0.8-4.7v-6.4c0-0.9-0.1-1.9-0.3-2.7c1.6-1,3.4-1.7,5.2-2.1c0.7-0.2,1.2-0.8,1.2-1.5v-5c0-0.6-0.3-1.1-0.8-1.3
	c-2.8-1.4-4.6-4.2-4.6-7.3v-4.8c0-4.5,3.7-8.2,8.2-8.2c4.5,0,8.2,3.7,8.2,8.2v4.8c0,3.1-1.9,6-4.7,7.4c-0.5,0.2-0.9,0.8-0.9,1.4v4.8
	c0,0.7,0.5,1.3,1.2,1.5c7.7,1.7,13.4,8.3,14.1,16L61.5,52.7L61.5,52.7z"/>
        </g>
    </symbol>
    <symbol id="speaker">
        <g>
            <path d="M42.9,41.3c9.3,0,16.9-7.6,16.9-16.9c0-9.3-7.6-16.8-16.9-16.8C33.6,7.6,26,15.1,26,24.4C26,33.7,33.6,41.3,42.9,41.3z
		 M42.9,10.6c7.6,0,13.9,6.2,13.9,13.8c0,7.6-6.2,13.9-13.9,13.9C35.2,38.3,29,32,29,24.4C29,16.8,35.2,10.6,42.9,10.6z"/>
            <path d="M88.4,72h-4.5V49c0-0.4-0.1-0.8-0.4-1L79.8,44c1.2-2.3,0.6-5.2-1.4-6.9l-4.1-3.5c-1.2-1-2.7-1.5-4.2-1.3
		c-1.5,0.1-2.9,0.8-3.9,2c-2,2.4-1.7,6.1,0.7,8.1l4.1,3.5c1.1,0.9,2.4,1.4,3.7,1.4c1.1,0,2.2-0.3,3.1-0.9l3.1,3.3V72h-8.5
		c-0.4-15.7-13.3-28.3-29-28.3c-15.8,0-28.7,12.6-29,28.3h-3.7c-0.8,0-1.5,0.7-1.5,1.5v16.4c0,0.8,0.7,1.5,1.5,1.5h77.8
		c0.8,0,1.5-0.7,1.5-1.5V73.5C89.9,72.7,89.2,72,88.4,72z M72.9,43.6l-4.1-3.5c-1.2-1-1.3-2.7-0.3-3.9c0.5-0.6,1.1-0.9,1.9-1
		c0.1,0,0.2,0,0.2,0c0.6,0,1.3,0.2,1.8,0.7l4.1,3.5l0,0c1.2,1,1.3,2.7,0.3,3.9C75.8,44.4,74.1,44.6,72.9,43.6z M43.3,46.6
		c14.1,0,25.7,11.3,26,25.3H17.3C17.7,57.9,29.2,46.6,43.3,46.6z M86.9,88.4H12.1V75h74.8V88.4z"/>
        </g>
    </symbol>
    <symbol id="cup">
        <g>
            <path d="M88.5,15.3c-0.3-0.3-0.7-0.5-1.1-0.5H72.2v-7c0-0.8-0.7-1.5-1.5-1.5H28c-0.8,0-1.5,0.7-1.5,1.5v7H10.9
		c-0.4,0-0.8,0.2-1.1,0.5c-0.3,0.3-0.4,0.7-0.4,1.1c0,0.3,0.3,6.7,2.6,14.1c3.2,9.9,8.6,16.9,15.8,20.1c2.4,8,7.9,14.3,14.8,16.8
		v0.3c0,8.3-6.3,14.9-14.4,14.9c-0.8,0-1.5,0.7-1.5,1.5v8.5c0,0.8,0.7,1.5,1.5,1.5h42.5c0.8,0,1.5-0.7,1.5-1.5v-8.5
		c0-0.8-0.7-1.5-1.5-1.5c-8.2,0-14.9-6.7-14.9-14.9v-0.2C63,65,68.6,58.6,71,50.4c6.9-3.3,12.2-10.2,15.3-19.9
		c2.4-7.4,2.6-13.9,2.6-14.1C89,16,88.8,15.6,88.5,15.3z M12.5,17.8h14v24c0,1.7,0.1,3.3,0.4,4.9C15.5,39.9,13,23,12.5,17.8z
		 M69.2,85.5V91H29.7v-5.5c8.8-0.7,15.6-8,15.8-17.3c1.2,0.2,2.5,0.4,3.8,0.4c1.2,0,2.4-0.1,3.5-0.3C53.2,77.4,60.3,84.8,69.2,85.5z
		 M53.3,65.2c-1.3,0.3-2.6,0.5-3.9,0.5c-1.5,0-3-0.2-4.4-0.6c-0.3-0.1-0.8-0.3-1-0.3c-8.3-2.8-14.5-12-14.5-22.9V9.4h39.7v6v1.9
		v24.6c0,10.9-6.2,20.1-14.6,22.9 M71.9,46.5c0.2-1.5,0.4-3.1,0.4-4.7v-24h13.6C85.4,23,83,39.4,71.9,46.5z"/>
            <path d="M63.8,27.3l-8.2-1.2l-3.7-7.5c-0.4-0.8-1.3-1.4-2.2-1.4c0,0,0,0,0,0c-0.9,0-1.8,0.5-2.2,1.4l-3.7,7.5l-8.2,1.2
		c-0.9,0.1-1.7,0.8-2,1.7c-0.3,0.9-0.1,1.9,0.6,2.5l6,5.8l-1.4,8.2c-0.2,0.9,0.2,1.8,1,2.4c0.4,0.3,0.9,0.5,1.5,0.5
		c0.4,0,0.8-0.1,1.1-0.3l7.6-3.8l7.2,3.8c0.8,0.4,1.8,0.4,2.6-0.2c0.8-0.6,1.1-1.5,1-2.4l-1.4-8.2l6-5.8c0.7-0.7,0.9-1.6,0.6-2.5
		C65.5,28.1,64.8,27.4,63.8,27.3z M56.6,35.7c-0.4,0.3-0.5,0.8-0.4,1.3l1.4,7.9l-6.9-3.6c-0.4-0.2-0.9-0.2-1.4,0L41.9,45l1.4-8
		c0.1-0.5-0.1-1-0.4-1.3l-5.7-5.6l7.9-1.2c0.5-0.1,0.9-0.4,1.1-0.8l3.5-7.2l3.5,7.2c0.2,0.4,0.6,0.8,1.1,0.8l7.9,1.2L56.6,35.7z"/>
        </g>
    </symbol>
    <symbol id="photo-video">
        <path d="M21.75 3.75H2.25C1.83516 3.75 1.5 4.08516 1.5 4.5V19.5C1.5 19.9148 1.83516 20.25 2.25 20.25H21.75C22.1648 20.25 22.5 19.9148 22.5 19.5V4.5C22.5 4.08516 22.1648 3.75 21.75 3.75ZM20.8125 18.5625H3.1875V17.6273L6.43359 13.7766L9.95156 17.9484L15.4242 11.4609L20.8125 17.85V18.5625ZM20.8125 15.5203L15.5672 9.3C15.4922 9.21094 15.3562 9.21094 15.2812 9.3L9.95156 15.6188L6.57656 11.618C6.50156 11.5289 6.36562 11.5289 6.29062 11.618L3.1875 15.2977V5.4375H20.8125V15.5203Z"
              fill="#1890FF"/>
        <path d="M9.95156 17.9484L6.43359 13.7766L3.1875 17.6273V18.5625H20.8125V17.85L15.4242 11.4609L9.95156 17.9484Z"
              fill="#E6F7FF"/>
        <path d="M3.1875 15.2977L6.29062 11.618C6.36562 11.5289 6.50156 11.5289 6.57656 11.618L9.95156 15.6188L15.2812 9.3C15.3562 9.21094 15.4922 9.21094 15.5672 9.3L20.8125 15.5203V5.4375H3.1875V15.2977ZM7.125 6.5625C7.39585 6.5625 7.66405 6.61585 7.91428 6.7195C8.16452 6.82315 8.39189 6.97507 8.58341 7.16659C8.77493 7.35811 8.92685 7.58548 9.0305 7.83572C9.13415 8.08595 9.1875 8.35415 9.1875 8.625C9.1875 8.89585 9.13415 9.16405 9.0305 9.41428C8.92685 9.66452 8.77493 9.89189 8.58341 10.0834C8.39189 10.2749 8.16452 10.4269 7.91428 10.5305C7.66405 10.6342 7.39585 10.6875 7.125 10.6875C6.57799 10.6875 6.05339 10.4702 5.66659 10.0834C5.2798 9.69661 5.0625 9.17201 5.0625 8.625C5.0625 8.07799 5.2798 7.55339 5.66659 7.16659C6.05339 6.7798 6.57799 6.5625 7.125 6.5625Z"
              fill="#E6F7FF"/>
        <path d="M6.46875 8.625C6.46875 8.79905 6.53789 8.96597 6.66096 9.08904C6.78403 9.21211 6.95095 9.28125 7.125 9.28125C7.29905 9.28125 7.46597 9.21211 7.58904 9.08904C7.71211 8.96597 7.78125 8.79905 7.78125 8.625C7.78125 8.45095 7.71211 8.28403 7.58904 8.16096C7.46597 8.03789 7.29905 7.96875 7.125 7.96875C6.95095 7.96875 6.78403 8.03789 6.66096 8.16096C6.53789 8.28403 6.46875 8.45095 6.46875 8.625Z"
              fill="#E6F7FF"/>
        <path d="M7.125 10.6875C7.39585 10.6875 7.66405 10.6342 7.91428 10.5305C8.16452 10.4269 8.39189 10.2749 8.58341 10.0834C8.77493 9.89189 8.92685 9.66452 9.0305 9.41428C9.13415 9.16405 9.1875 8.89585 9.1875 8.625C9.1875 8.35415 9.13415 8.08595 9.0305 7.83572C8.92685 7.58548 8.77493 7.35811 8.58341 7.16659C8.39189 6.97507 8.16452 6.82315 7.91428 6.7195C7.66405 6.61585 7.39585 6.5625 7.125 6.5625C6.57799 6.5625 6.05339 6.7798 5.66659 7.16659C5.2798 7.55339 5.0625 8.07799 5.0625 8.625C5.0625 9.17201 5.2798 9.69661 5.66659 10.0834C6.05339 10.4702 6.57799 10.6875 7.125 10.6875ZM7.125 7.96875C7.48828 7.96875 7.78125 8.26172 7.78125 8.625C7.78125 8.98828 7.48828 9.28125 7.125 9.28125C6.76172 9.28125 6.46875 8.98828 6.46875 8.625C6.46875 8.26172 6.76172 7.96875 7.125 7.96875Z"
              fill="#1890FF"/>

    </symbol>
    <symbol id="tag-friend">
        <g>
            <path d="M15.8976 15.0563C16.4648 14.7516 17.114 14.5781 17.8054 14.5781H17.8077C17.8781 14.5781 17.9109 14.4938 17.8593 14.4469C17.1403 13.8016 16.3189 13.2804 15.4288 12.9047C15.4195 12.9 15.4101 12.8977 15.4007 12.893C16.8562 11.8359 17.8031 10.118 17.8031 8.17969C17.8031 4.96875 15.2062 2.36719 12.0023 2.36719C8.79837 2.36719 6.20384 4.96875 6.20384 8.17969C6.20384 10.118 7.15072 11.8359 8.60853 12.893C8.59915 12.8977 8.58978 12.9 8.58041 12.9047C7.53275 13.3477 6.59291 13.9828 5.78431 14.7938C4.98039 15.5962 4.34036 16.5475 3.89994 17.5945C3.46661 18.6198 3.23274 19.7184 3.21087 20.8312C3.21025 20.8563 3.21464 20.8812 3.22378 20.9044C3.23292 20.9277 3.24663 20.949 3.26411 20.9669C3.28158 20.9848 3.30246 20.999 3.32552 21.0087C3.34858 21.0184 3.37335 21.0234 3.39837 21.0234H4.80228C4.90306 21.0234 4.98744 20.9414 4.98978 20.8406C5.03666 19.0312 5.76087 17.3367 7.04291 16.0523C8.36712 14.7234 10.1296 13.9922 12.0046 13.9922C13.3335 13.9922 14.6085 14.3602 15.7077 15.0492C15.736 15.067 15.7684 15.077 15.8017 15.0782C15.8351 15.0794 15.8681 15.0719 15.8976 15.0563ZM12.0046 12.2109C10.9312 12.2109 9.92103 11.7914 9.15931 11.0297C8.78453 10.6559 8.48742 10.2116 8.28509 9.72248C8.08276 9.23335 7.97921 8.70901 7.98041 8.17969C7.98041 7.10391 8.39994 6.09141 9.15931 5.32969C9.91869 4.56797 10.9288 4.14844 12.0046 4.14844C13.0804 4.14844 14.0882 4.56797 14.8499 5.32969C15.2247 5.70349 15.5218 6.14776 15.7242 6.63689C15.9265 7.12603 16.03 7.65036 16.0288 8.17969C16.0288 9.25547 15.6093 10.268 14.8499 11.0297C14.0882 11.7914 13.0781 12.2109 12.0046 12.2109ZM20.6249 17.7891H18.6562V15.8203C18.6562 15.7172 18.5718 15.6328 18.4687 15.6328H17.1562C17.0531 15.6328 16.9687 15.7172 16.9687 15.8203V17.7891H14.9999C14.8968 17.7891 14.8124 17.8734 14.8124 17.9766V19.2891C14.8124 19.3922 14.8968 19.4766 14.9999 19.4766H16.9687V21.4453C16.9687 21.5484 17.0531 21.6328 17.1562 21.6328H18.4687C18.5718 21.6328 18.6562 21.5484 18.6562 21.4453V19.4766H20.6249C20.7281 19.4766 20.8124 19.3922 20.8124 19.2891V17.9766C20.8124 17.8734 20.7281 17.7891 20.6249 17.7891Z"
                  fill="#1890FF"/>
        </g>
    </symbol>
    <symbol id="feelings">
        <g>
            <path d="M12 1.5C6.20156 1.5 1.5 6.20156 1.5 12C1.5 17.7984 6.20156 22.5 12 22.5C17.7984 22.5 22.5 17.7984 22.5 12C22.5 6.20156 17.7984 1.5 12 1.5ZM12 20.7188C7.18594 20.7188 3.28125 16.8141 3.28125 12C3.28125 7.18594 7.18594 3.28125 12 3.28125C16.8141 3.28125 20.7188 7.18594 20.7188 12C20.7188 16.8141 16.8141 20.7188 12 20.7188Z"
                  fill="#1890FF"/>
            <path d="M12 3.28125C7.18594 3.28125 3.28125 7.18594 3.28125 12C3.28125 16.8141 7.18594 20.7188 12 20.7188C16.8141 20.7188 20.7188 16.8141 20.7188 12C20.7188 7.18594 16.8141 3.28125 12 3.28125ZM6.75 9.86719C6.75601 9.5728 6.87718 9.29249 7.0875 9.08641C7.29782 8.88034 7.58055 8.76492 7.875 8.76492C8.16945 8.76492 8.45218 8.88034 8.6625 9.08641C8.87282 9.29249 8.99399 9.5728 9 9.86719C8.99399 10.1616 8.87282 10.4419 8.6625 10.648C8.45218 10.854 8.16945 10.9695 7.875 10.9695C7.58055 10.9695 7.29782 10.854 7.0875 10.648C6.87718 10.4419 6.75601 10.1616 6.75 9.86719ZM12 16.2422C9.99609 16.2422 8.35313 14.6648 8.25 12.6891C8.24873 12.6637 8.25264 12.6383 8.26149 12.6144C8.27034 12.5906 8.28395 12.5688 8.30149 12.5504C8.31903 12.532 8.34013 12.5173 8.36351 12.5073C8.3869 12.4973 8.41207 12.4922 8.4375 12.4922H9.56484C9.66328 12.4922 9.74766 12.5672 9.75469 12.6656C9.84375 13.8258 10.8164 14.7422 12 14.7422C13.1836 14.7422 14.1586 13.8258 14.2453 12.6656C14.2523 12.5672 14.3367 12.4922 14.4352 12.4922H15.5625C15.5879 12.4922 15.6131 12.4973 15.6365 12.5073C15.6599 12.5173 15.681 12.532 15.6985 12.5504C15.716 12.5688 15.7297 12.5906 15.7385 12.6144C15.7474 12.6383 15.7513 12.6637 15.75 12.6891C15.6469 14.6648 14.0039 16.2422 12 16.2422ZM16.125 10.9922C15.8306 10.9862 15.5503 10.865 15.3442 10.6547C15.1382 10.4444 15.0227 10.1616 15.0227 9.86719C15.0227 9.57273 15.1382 9.29001 15.3442 9.07969C15.5503 8.86936 15.8306 8.7482 16.125 8.74219C16.4194 8.7482 16.6997 8.86936 16.9058 9.07969C17.1118 9.29001 17.2273 9.57273 17.2273 9.86719C17.2273 10.1616 17.1118 10.4444 16.9058 10.6547C16.6997 10.865 16.4194 10.9862 16.125 10.9922Z"
                  fill="#E6F7FF"/>
            <path d="M6.75 9.86719C6.75 10.1656 6.86853 10.4517 7.0795 10.6627C7.29048 10.8737 7.57663 10.9922 7.875 10.9922C8.17337 10.9922 8.45952 10.8737 8.6705 10.6627C8.88147 10.4517 9 10.1656 9 9.86719C9 9.56882 8.88147 9.28267 8.6705 9.07169C8.45952 8.86071 8.17337 8.74219 7.875 8.74219C7.57663 8.74219 7.29048 8.86071 7.0795 9.07169C6.86853 9.28267 6.75 9.56882 6.75 9.86719ZM15.5625 12.4922H14.4352C14.3367 12.4922 14.2523 12.5672 14.2453 12.6656C14.1586 13.8258 13.1836 14.7422 12 14.7422C10.8164 14.7422 9.84375 13.8258 9.75469 12.6656C9.74766 12.5672 9.66328 12.4922 9.56484 12.4922H8.4375C8.41207 12.4922 8.3869 12.4973 8.36351 12.5073C8.34013 12.5173 8.31903 12.532 8.30149 12.5504C8.28395 12.5688 8.27034 12.5906 8.26149 12.6144C8.25264 12.6383 8.24873 12.6637 8.25 12.6891C8.35312 14.6648 9.99609 16.2422 12 16.2422C14.0039 16.2422 15.6469 14.6648 15.75 12.6891C15.7513 12.6637 15.7474 12.6383 15.7385 12.6144C15.7297 12.5906 15.716 12.5688 15.6985 12.5504C15.681 12.532 15.6599 12.5173 15.6365 12.5073C15.6131 12.4973 15.5879 12.4922 15.5625 12.4922ZM15 9.86719C15 10.1656 15.1185 10.4517 15.3295 10.6627C15.5405 10.8737 15.8266 10.9922 16.125 10.9922C16.4234 10.9922 16.7095 10.8737 16.9205 10.6627C17.1315 10.4517 17.25 10.1656 17.25 9.86719C17.25 9.56882 17.1315 9.28267 16.9205 9.07169C16.7095 8.86071 16.4234 8.74219 16.125 8.74219C15.8266 8.74219 15.5405 8.86071 15.3295 9.07169C15.1185 9.28267 15 9.56882 15 9.86719Z"
                  fill="#1890FF"/>

        </g>
    </symbol>
    <symbol id="ellipsis">
        <g>
            <path d="M4.125 11.9766C4.125 12.1489 4.15895 12.3196 4.22491 12.4788C4.29087 12.6381 4.38755 12.7828 4.50942 12.9046C4.6313 13.0265 4.77599 13.1232 4.93523 13.1892C5.09447 13.2551 5.26514 13.2891 5.4375 13.2891C5.60986 13.2891 5.78053 13.2551 5.93977 13.1892C6.09901 13.1232 6.2437 13.0265 6.36558 12.9046C6.48745 12.7828 6.58413 12.6381 6.65009 12.4788C6.71605 12.3196 6.75 12.1489 6.75 11.9766C6.75 11.8042 6.71605 11.6335 6.65009 11.4743C6.58413 11.3151 6.48745 11.1704 6.36558 11.0485C6.2437 10.9266 6.09901 10.8299 5.93977 10.764C5.78053 10.698 5.60986 10.6641 5.4375 10.6641C5.26514 10.6641 5.09447 10.698 4.93523 10.764C4.77599 10.8299 4.6313 10.9266 4.50942 11.0485C4.38755 11.1704 4.29087 11.3151 4.22491 11.4743C4.15895 11.6335 4.125 11.8042 4.125 11.9766ZM10.6875 11.9766C10.6875 12.3247 10.8258 12.6585 11.0719 12.9046C11.3181 13.1508 11.6519 13.2891 12 13.2891C12.3481 13.2891 12.6819 13.1508 12.9281 12.9046C13.1742 12.6585 13.3125 12.3247 13.3125 11.9766C13.3125 11.6285 13.1742 11.2946 12.9281 11.0485C12.6819 10.8023 12.3481 10.6641 12 10.6641C11.6519 10.6641 11.3181 10.8023 11.0719 11.0485C10.8258 11.2946 10.6875 11.6285 10.6875 11.9766ZM17.25 11.9766C17.25 12.3247 17.3883 12.6585 17.6344 12.9046C17.8806 13.1508 18.2144 13.2891 18.5625 13.2891C18.9106 13.2891 19.2444 13.1508 19.4906 12.9046C19.7367 12.6585 19.875 12.3247 19.875 11.9766C19.875 11.6285 19.7367 11.2946 19.4906 11.0485C19.2444 10.8023 18.9106 10.6641 18.5625 10.6641C18.2144 10.6641 17.8806 10.8023 17.6344 11.0485C17.3883 11.2946 17.25 11.6285 17.25 11.9766Z"
                  fill="#595959"/>
        </g>
    </symbol>
    <symbol id="settings">
        <g>
            <path d="M12.6438 8.55473L11.7483 7.7891C11.7907 7.52934 11.8126 7.2641 11.8126 6.99887C11.8126 6.73363 11.7907 6.4684 11.7483 6.20863L12.6438 5.44301C12.7114 5.38519 12.7597 5.30817 12.7824 5.22221C12.8051 5.13624 12.8011 5.0454 12.771 4.96176L12.7587 4.92621C12.5121 4.23719 12.143 3.59845 11.669 3.04086L11.6444 3.01215C11.5869 2.94454 11.5103 2.89595 11.4246 2.87276C11.339 2.84958 11.2483 2.85289 11.1645 2.88227L10.053 3.27738C9.64285 2.94106 9.18485 2.67582 8.68992 2.48988L8.47528 1.32777C8.45908 1.24033 8.41667 1.15989 8.35366 1.09713C8.29066 1.03437 8.21005 0.992262 8.12254 0.976407L8.08563 0.969571C7.37332 0.841055 6.6241 0.841055 5.9118 0.969571L5.87489 0.976407C5.78738 0.992262 5.70677 1.03437 5.64377 1.09713C5.58076 1.15989 5.53835 1.24033 5.52215 1.32777L5.30614 2.49535C4.81516 2.68133 4.35795 2.94642 3.95262 3.28012L2.83289 2.88227C2.74918 2.85266 2.65843 2.84922 2.57271 2.87242C2.487 2.89562 2.41037 2.94436 2.35301 3.01215L2.3284 3.04086C1.85501 3.59884 1.48591 4.23747 1.23875 4.92621L1.22645 4.96176C1.16493 5.13266 1.21551 5.32406 1.3536 5.44301L2.26004 6.21684C2.21766 6.47387 2.19715 6.73637 2.19715 6.9975C2.19715 7.26 2.21766 7.5225 2.26004 7.77817L1.3536 8.55199C1.28605 8.60982 1.23771 8.68683 1.215 8.7728C1.19229 8.85876 1.19628 8.9496 1.22645 9.03324L1.23875 9.06879C1.48621 9.75785 1.85262 10.3936 2.3284 10.9541L2.35301 10.9829C2.41051 11.0505 2.48714 11.0991 2.5728 11.1222C2.65847 11.1454 2.74915 11.1421 2.83289 11.1127L3.95262 10.7149C4.36004 11.0498 4.81532 11.3151 5.30614 11.4997L5.52215 12.6672C5.53835 12.7547 5.58076 12.8351 5.64377 12.8979C5.70677 12.9606 5.78738 13.0027 5.87489 13.0186L5.9118 13.0254C6.63065 13.1546 7.36678 13.1546 8.08563 13.0254L8.12254 13.0186C8.21005 13.0027 8.29066 12.9606 8.35366 12.8979C8.41667 12.8351 8.45908 12.7547 8.47528 12.6672L8.68992 11.5051C9.18465 11.3197 9.64524 11.0536 10.053 10.7176L11.1645 11.1127C11.2483 11.1423 11.339 11.1458 11.4247 11.1226C11.5104 11.0994 11.5871 11.0506 11.6444 10.9829L11.669 10.9541C12.1448 10.3922 12.5112 9.75785 12.7587 9.06879L12.771 9.03324C12.8325 8.86508 12.7819 8.67367 12.6438 8.55473ZM10.7776 6.36996C10.8118 6.57641 10.8296 6.78832 10.8296 7.00024C10.8296 7.21215 10.8118 7.42406 10.7776 7.63051L10.6874 8.17875L11.7087 9.05238C11.5539 9.40907 11.3584 9.74672 11.1263 10.0586L9.8575 9.60883L9.42821 9.96156C9.10145 10.2295 8.73778 10.4401 8.34403 10.5877L7.82313 10.7832L7.5784 12.1094C7.19227 12.1532 6.80243 12.1532 6.41629 12.1094L6.17157 10.7805L5.65477 10.5823C5.26512 10.4346 4.90282 10.2241 4.57879 9.95746L4.1495 9.60336L2.87254 10.0573C2.64012 9.74418 2.44598 9.40649 2.29012 9.05102L3.32235 8.16918L3.23348 7.62231C3.20067 7.41859 3.18289 7.20805 3.18289 7.00024C3.18289 6.79106 3.1993 6.58188 3.23348 6.37816L3.32235 5.83129L2.29012 4.94945C2.44461 4.59262 2.64012 4.25629 2.87254 3.9432L4.1495 4.39711L4.57879 4.04301C4.90282 3.77641 5.26512 3.56586 5.65477 3.4182L6.17293 3.2227L6.41766 1.89379C6.80184 1.85004 7.19422 1.85004 7.57977 1.89379L7.8245 3.21996L8.34539 3.41547C8.73778 3.56313 9.10282 3.77367 9.42957 4.04164L9.85887 4.39438L11.1276 3.94457C11.36 4.25766 11.5542 4.59535 11.71 4.95082L10.6888 5.82445L10.7776 6.36996ZM7.00008 4.45727C5.67118 4.45727 4.59383 5.53461 4.59383 6.86352C4.59383 8.19242 5.67118 9.26977 7.00008 9.26977C8.32899 9.26977 9.40633 8.19242 9.40633 6.86352C9.40633 5.53461 8.32899 4.45727 7.00008 4.45727ZM8.08289 7.94633C7.94087 8.08876 7.77209 8.2017 7.58626 8.27866C7.40043 8.35562 7.20122 8.39508 7.00008 8.39477C6.59129 8.39477 6.20711 8.23481 5.91727 7.94633C5.77484 7.80431 5.6619 7.63553 5.58494 7.4497C5.50798 7.26387 5.46852 7.06465 5.46883 6.86352C5.46883 6.45473 5.62879 6.07055 5.91727 5.7807C6.20711 5.49086 6.59129 5.33227 7.00008 5.33227C7.40887 5.33227 7.79305 5.49086 8.08289 5.7807C8.22532 5.92272 8.33827 6.09151 8.41523 6.27734C8.49219 6.46317 8.53164 6.66238 8.53133 6.86352C8.53133 7.27231 8.37137 7.65649 8.08289 7.94633Z"
                  fill="#8C8C8C"/>
        </g>
    </symbol>
    <symbol id="like-active">
        <g>
            <path d="M4.26562 7.74846V14.436L4.27031 7.74846H4.26562ZM12.675 6.36877H7.7625L7.9125 3.26877C7.92188 3.08283 7.83906 2.90783 7.68437 2.79221C7.58906 2.72189 7.47188 2.68596 7.35469 2.68752C7.04844 2.68908 6.77813 2.89689 6.69531 3.19221C6.11563 5.29221 5.68125 6.86721 5.39062 7.91877V13.3125H11.6313C11.7874 13.2425 11.9201 13.1289 12.0132 12.9853C12.1063 12.8417 12.156 12.6743 12.1562 12.5031C12.1562 12.3516 12.1203 12.2078 12.0484 12.0766L11.8313 11.6797L12.1734 11.3828C12.2698 11.2994 12.347 11.1962 12.3998 11.0803C12.4527 10.9643 12.4799 10.8384 12.4797 10.711C12.4797 10.5594 12.4437 10.4156 12.3719 10.2844L12.1547 9.88752L12.4969 9.59064C12.5932 9.50723 12.6704 9.40403 12.7232 9.28809C12.7761 9.17215 12.8033 9.04618 12.8031 8.91877C12.8031 8.76721 12.7672 8.62346 12.6953 8.49221L12.4766 8.09377L12.8188 7.79689C12.9151 7.71348 12.9923 7.61028 13.0451 7.49434C13.098 7.3784 13.1252 7.25243 13.125 7.12502C13.125 6.82658 12.9531 6.53908 12.675 6.36877Z"
                  fill="#E6F7FF"/>
            <path d="M1.75 8.25005V13.9375C1.75 14.2141 1.97344 14.4375 2.25 14.4375H3.26562V7.75005H2.25C1.97344 7.75005 1.75 7.97349 1.75 8.25005ZM13.8422 8.33911C14.1047 7.99224 14.25 7.56724 14.25 7.12505C14.25 6.42349 13.8578 5.75786 13.2266 5.39067C13.0641 5.29535 12.879 5.24519 12.6906 5.24536H8.94219L9.03594 3.32505C9.05937 2.86099 8.89531 2.42036 8.575 2.08442C8.4187 1.91868 8.23 1.78683 8.02061 1.69705C7.81123 1.60728 7.58563 1.5615 7.35781 1.56255C6.54531 1.56255 5.82656 2.10942 5.61094 2.89224L4.27031 7.74849L4.26562 14.436H11.6422C11.7875 14.436 11.9266 14.4079 12.0562 14.3516C12.8 14.0344 13.2797 13.3079 13.2797 12.5016C13.2797 12.3047 13.2516 12.111 13.1953 11.9235C13.4578 11.5766 13.6031 11.1516 13.6031 10.7094C13.6031 10.5125 13.575 10.3188 13.5188 10.1313C13.7812 9.78442 13.9266 9.35942 13.9266 8.91724C13.9266 8.72036 13.8984 8.52661 13.8422 8.33911ZM12.8188 7.79692L12.4766 8.0938L12.6953 8.49224C12.7669 8.62297 12.804 8.76976 12.8031 8.9188C12.8031 9.17661 12.6922 9.42192 12.4969 9.59067L12.1547 9.88755L12.3719 10.2844C12.4434 10.4152 12.4805 10.562 12.4797 10.711C12.4797 10.9688 12.3687 11.2141 12.1734 11.3829L11.8313 11.6797L12.0484 12.0766C12.12 12.2073 12.1571 12.3541 12.1562 12.5032C12.1562 12.8532 11.95 13.1688 11.6313 13.3125H5.39062V7.9188C5.68125 6.8688 6.11562 5.2938 6.69531 3.19224C6.73581 3.04809 6.82198 2.92098 6.94087 2.82998C7.05977 2.73898 7.20497 2.689 7.35469 2.68755C7.47188 2.68599 7.58906 2.72192 7.68437 2.79224C7.83906 2.90786 7.92188 3.08286 7.9125 3.2688L7.7625 6.3688H12.675C12.9531 6.53911 13.125 6.82661 13.125 7.12505C13.125 7.38286 13.0141 7.62817 12.8188 7.79692Z"
                  fill="#1890FF"/>
        </g>
    </symbol>
    <symbol id="like">
        <g>

            <path d="M1.75 8.25005V13.9375C1.75 14.2141 1.97344 14.4375 2.25 14.4375H3.26562V7.75005H2.25C1.97344 7.75005 1.75 7.97349 1.75 8.25005ZM13.8422 8.33911C14.1047 7.99224 14.25 7.56724 14.25 7.12505C14.25 6.42349 13.8578 5.75786 13.2266 5.39067C13.0641 5.29535 12.879 5.24519 12.6906 5.24536H8.94219L9.03594 3.32505C9.05937 2.86099 8.89531 2.42036 8.575 2.08442C8.4187 1.91868 8.23 1.78683 8.02061 1.69705C7.81123 1.60728 7.58563 1.5615 7.35781 1.56255C6.54531 1.56255 5.82656 2.10942 5.61094 2.89224L4.27031 7.74849L4.26562 14.436H11.6422C11.7875 14.436 11.9266 14.4079 12.0562 14.3516C12.8 14.0344 13.2797 13.3079 13.2797 12.5016C13.2797 12.3047 13.2516 12.111 13.1953 11.9235C13.4578 11.5766 13.6031 11.1516 13.6031 10.7094C13.6031 10.5125 13.575 10.3188 13.5188 10.1313C13.7812 9.78442 13.9266 9.35942 13.9266 8.91724C13.9266 8.72036 13.8984 8.52661 13.8422 8.33911ZM12.8188 7.79692L12.4766 8.0938L12.6953 8.49224C12.7669 8.62297 12.804 8.76976 12.8031 8.9188C12.8031 9.17661 12.6922 9.42192 12.4969 9.59067L12.1547 9.88755L12.3719 10.2844C12.4434 10.4152 12.4805 10.562 12.4797 10.711C12.4797 10.9688 12.3687 11.2141 12.1734 11.3829L11.8313 11.6797L12.0484 12.0766C12.12 12.2073 12.1571 12.3541 12.1562 12.5032C12.1562 12.8532 11.95 13.1688 11.6313 13.3125H5.39062V7.9188C5.68125 6.8688 6.11562 5.2938 6.69531 3.19224C6.73581 3.04809 6.82198 2.92098 6.94087 2.82998C7.05977 2.73898 7.20497 2.689 7.35469 2.68755C7.47188 2.68599 7.58906 2.72192 7.68437 2.79224C7.83906 2.90786 7.92188 3.08286 7.9125 3.2688L7.7625 6.3688H12.675C12.9531 6.53911 13.125 6.82661 13.125 7.12505C13.125 7.38286 13.0141 7.62817 12.8188 7.79692Z"/>
        </g>
    </symbol>
    <symbol id="share">
        <g>
            <path d="M17.625 15.5625C16.957 15.5625 16.3406 15.7969 15.8578 16.1883L11.0016 12.675C11.0829 12.2287 11.0829 11.7713 11.0016 11.325L15.8578 7.81172C16.3406 8.20312 16.957 8.4375 17.625 8.4375C19.1766 8.4375 20.4375 7.17656 20.4375 5.625C20.4375 4.07344 19.1766 2.8125 17.625 2.8125C16.0734 2.8125 14.8125 4.07344 14.8125 5.625C14.8125 5.89687 14.85 6.15703 14.9227 6.40547L10.3102 9.74531C9.62578 8.83828 8.53828 8.25 7.3125 8.25C5.24062 8.25 3.5625 9.92812 3.5625 12C3.5625 14.0719 5.24062 15.75 7.3125 15.75C8.53828 15.75 9.62578 15.1617 10.3102 14.2547L14.9227 17.5945C14.85 17.843 14.8125 18.1055 14.8125 18.375C14.8125 19.9266 16.0734 21.1875 17.625 21.1875C19.1766 21.1875 20.4375 19.9266 20.4375 18.375C20.4375 16.8234 19.1766 15.5625 17.625 15.5625ZM17.625 4.40625C18.2977 4.40625 18.8438 4.95234 18.8438 5.625C18.8438 6.29766 18.2977 6.84375 17.625 6.84375C16.9523 6.84375 16.4062 6.29766 16.4062 5.625C16.4062 4.95234 16.9523 4.40625 17.625 4.40625ZM7.3125 14.0625C6.17578 14.0625 5.25 13.1367 5.25 12C5.25 10.8633 6.17578 9.9375 7.3125 9.9375C8.44922 9.9375 9.375 10.8633 9.375 12C9.375 13.1367 8.44922 14.0625 7.3125 14.0625ZM17.625 19.5938C16.9523 19.5938 16.4062 19.0477 16.4062 18.375C16.4062 17.7023 16.9523 17.1562 17.625 17.1562C18.2977 17.1562 18.8438 17.7023 18.8438 18.375C18.8438 19.0477 18.2977 19.5938 17.625 19.5938Z"
                  fill="#595959"/>
        </g>
    </symbol>
    <symbol id="clock-circle">
        <g>
            <path d="M8 1C4.13438 1 1 4.13438 1 8C1 11.8656 4.13438 15 8 15C11.8656 15 15 11.8656 15 8C15 4.13438 11.8656 1 8 1ZM8 13.8125C4.79063 13.8125 2.1875 11.2094 2.1875 8C2.1875 4.79063 4.79063 2.1875 8 2.1875C11.2094 2.1875 13.8125 4.79063 13.8125 8C13.8125 11.2094 11.2094 13.8125 8 13.8125Z"/>
            <path d="M10.7297 9.97811L8.50156 8.36718V4.5C8.50156 4.43125 8.44531 4.375 8.37656 4.375H7.625C7.55625 4.375 7.5 4.43125 7.5 4.5V8.80311C7.5 8.84374 7.51875 8.88124 7.55156 8.90467L10.1359 10.789C10.1922 10.8297 10.2703 10.8172 10.3109 10.7625L10.7578 10.1531C10.7984 10.0953 10.7859 10.0172 10.7297 9.97811Z"/>
        </g>
    </symbol>
    <symbol id="birthday">
        <g>
            <path d="M12.7969 8.85938H19.7812V11.2969H12.7969V8.85938ZM5.34375 12.8906H11.2031V20.1094H5.34375V12.8906ZM4.21875 8.85938H11.2031V11.2969H4.21875V8.85938ZM12.7969 12.8906H18.6562V20.1094H12.7969V12.8906Z"
                  fill="#E6F7FF"/>
            <path d="M20.625 7.26562H17.1656C17.4844 6.76406 17.6719 6.16875 17.6719 5.53125C17.6719 3.74766 16.2211 2.29688 14.4375 2.29688C13.4672 2.29688 12.593 2.72812 12 3.40781C11.407 2.72812 10.5328 2.29688 9.5625 2.29688C7.77891 2.29688 6.32812 3.74766 6.32812 5.53125C6.32812 6.16875 6.51328 6.76406 6.83438 7.26562H3.375C2.96016 7.26562 2.625 7.60078 2.625 8.01562V12.7031C2.625 12.8062 2.70937 12.8906 2.8125 12.8906H3.75V20.9531C3.75 21.368 4.08516 21.7031 4.5 21.7031H19.5C19.9148 21.7031 20.25 21.368 20.25 20.9531V12.8906H21.1875C21.2906 12.8906 21.375 12.8062 21.375 12.7031V8.01562C21.375 7.60078 21.0398 7.26562 20.625 7.26562ZM11.2031 20.1094H5.34375V12.8906H11.2031V20.1094ZM11.2031 11.2969H4.21875V8.85938H11.2031V11.2969ZM11.2031 7.17188H9.5625C8.65781 7.17188 7.92188 6.43594 7.92188 5.53125C7.92188 4.62656 8.65781 3.89062 9.5625 3.89062C10.4672 3.89062 11.2031 4.62656 11.2031 5.53125V7.17188ZM12.7969 5.53125C12.7969 4.62656 13.5328 3.89062 14.4375 3.89062C15.3422 3.89062 16.0781 4.62656 16.0781 5.53125C16.0781 6.43594 15.3422 7.17188 14.4375 7.17188H12.7969V5.53125ZM18.6562 20.1094H12.7969V12.8906H18.6562V20.1094ZM19.7812 11.2969H12.7969V8.85938H19.7812V11.2969Z"
                  fill="#1890FF"/>
        </g>
    </symbol>
</svg>



